<?xml version="1.0" encoding="utf-8"?>
<!-- Generator: Adobe Illustrator 16.0.0, SVG Export Plug-In . SVG Version: 6.00 Build 0)  -->
<!DOCTYPE svg PUBLIC "-//W3C//DTD SVG 1.1//EN" "http://www.w3.org/Graphics/SVG/1.1/DTD/svg11.dtd">
<svg version="1.1" id="Layer_1" xmlns="http://www.w3.org/2000/svg" xmlns:xlink="http://www.w3.org/1999/xlink" x="0px" y="0px"
	 width="513px" height="446px" viewBox="381.5 67.5 513 446" enable-background="new 381.5 67.5 513 446" xml:space="preserve">
<g>
	<path fill="#FFFFFF" d="M723.885,357.934c14.213-21.429,31.796-36.574,49.855-28.646c39.894,16.685,148.192,42.858,103.859,100.438
		c-18.396,26.054-44.756,55.903-44.756,55.903s-7.097,14.28-27.646,17.686c-151.784,34.762-412.377-170.604-419.035-324.133
		c0.373-19.719,11.672-31.492,11.672-31.492s22.157-32.356,42.655-57.156c46.433-56.326,97.848,41.3,122.682,76.061
		c12.621,14.654,3.862,36.49-14.551,55.413C506.355,266.576,690.445,409.195,723.885,357.934z"/>
</g>
</svg>
